<?xml version="1.0" encoding="UTF-8" ?>
<svg version="1.1" width="22" height="64" xmlns="http://www.w3.org/2000/svg" shape-rendering="crispEdges">
<rect x="8" y="0" width="2" height="2" fill="#FFFFFF" />
<rect x="10" y="0" width="2" height="2" fill="#FFFFFF" />
<rect x="12" y="0" width="2" height="2" fill="#FFFFFF" />
<rect x="6" y="2" width="2" height="2" fill="#FFFFFF" />
<rect x="8" y="2" width="2" height="2" fill="#FFFFFF" />
<rect x="10" y="2" width="2" height="2" fill="#242121" />
<rect x="12" y="2" width="2" height="2" fill="#FFFFFF" />
<rect x="14" y="2" width="2" height="2" fill="#FFFFFF" />
<rect x="6" y="4" width="2" height="2" fill="#FFFFFF" />
<rect x="8" y="4" width="2" height="2" fill="#242121" />
<rect x="10" y="4" width="2" height="2" fill="#F4BF7B" />
<rect x="12" y="4" width="2" height="2" fill="#242121" />
<rect x="14" y="4" width="2" height="2" fill="#FFFFFF" />
<rect x="4" y="6" width="2" height="2" fill="#FFFFFF" />
<rect x="6" y="6" width="2" height="2" fill="#FFFFFF" />
<rect x="8" y="6" width="2" height="2" fill="#242121" />
<rect x="10" y="6" width="2" height="2" fill="#FCEAA5" />
<rect x="12" y="6" width="2" height="2" fill="#242121" />
<rect x="14" y="6" width="2" height="2" fill="#FFFFFF" />
<rect x="16" y="6" width="2" height="2" fill="#FFFFFF" />
<rect x="4" y="8" width="2" height="2" fill="#FFFFFF" />
<rect x="6" y="8" width="2" height="2" fill="#242121" />
<rect x="8" y="8" width="2" height="2" fill="#FCEAA5" />
<rect x="10" y="8" width="2" height="2" fill="#F2EDD9" />
<rect x="12" y="8" width="2" height="2" fill="#6F3235" />
<rect x="14" y="8" width="2" height="2" fill="#242121" />
<rect x="16" y="8" width="2" height="2" fill="#FFFFFF" />
<rect x="4" y="10" width="2" height="2" fill="#FFFFFF" />
<rect x="6" y="10" width="2" height="2" fill="#242121" />
<rect x="8" y="10" width="2" height="2" fill="#F2EDD9" />
<rect x="10" y="10" width="2" height="2" fill="#F2EDD9" />
<rect x="12" y="10" width="2" height="2" fill="#6F3235" />
<rect x="14" y="10" width="2" height="2" fill="#242121" />
<rect x="16" y="10" width="2" height="2" fill="#FFFFFF" />
<rect x="4" y="12" width="2" height="2" fill="#FFFFFF" />
<rect x="6" y="12" width="2" height="2" fill="#242121" />
<rect x="8" y="12" width="2" height="2" fill="#F2EDD9" />
<rect x="10" y="12" width="2" height="2" fill="#F4BF7B" />
<rect x="12" y="12" width="2" height="2" fill="#6F3235" />
<rect x="14" y="12" width="2" height="2" fill="#242121" />
<rect x="16" y="12" width="2" height="2" fill="#FFFFFF" />
<rect x="4" y="14" width="2" height="2" fill="#FFFFFF" />
<rect x="6" y="14" width="2" height="2" fill="#242121" />
<rect x="8" y="14" width="2" height="2" fill="#F4BF7B" />
<rect x="10" y="14" width="2" height="2" fill="#F4BF7B" />
<rect x="12" y="14" width="2" height="2" fill="#6F3235" />
<rect x="14" y="14" width="2" height="2" fill="#242121" />
<rect x="16" y="14" width="2" height="2" fill="#FFFFFF" />
<rect x="4" y="16" width="2" height="2" fill="#FFFFFF" />
<rect x="6" y="16" width="2" height="2" fill="#242121" />
<rect x="8" y="16" width="2" height="2" fill="#F4BF7B" />
<rect x="10" y="16" width="2" height="2" fill="#EBAA70" />
<rect x="12" y="16" width="2" height="2" fill="#6F3235" />
<rect x="14" y="16" width="2" height="2" fill="#242121" />
<rect x="16" y="16" width="2" height="2" fill="#FFFFFF" />
<rect x="4" y="18" width="2" height="2" fill="#FFFFFF" />
<rect x="6" y="18" width="2" height="2" fill="#242121" />
<rect x="8" y="18" width="2" height="2" fill="#242121" />
<rect x="10" y="18" width="2" height="2" fill="#242121" />
<rect x="12" y="18" width="2" height="2" fill="#242121" />
<rect x="14" y="18" width="2" height="2" fill="#242121" />
<rect x="16" y="18" width="2" height="2" fill="#FFFFFF" />
<rect x="4" y="20" width="2" height="2" fill="#FFFFFF" />
<rect x="6" y="20" width="2" height="2" fill="#242121" />
<rect x="8" y="20" width="2" height="2" fill="#FCEAA5" />
<rect x="10" y="20" width="2" height="2" fill="#EBAA70" />
<rect x="12" y="20" width="2" height="2" fill="#6F3235" />
<rect x="14" y="20" width="2" height="2" fill="#242121" />
<rect x="16" y="20" width="2" height="2" fill="#FFFFFF" />
<rect x="4" y="22" width="2" height="2" fill="#FFFFFF" />
<rect x="6" y="22" width="2" height="2" fill="#242121" />
<rect x="8" y="22" width="2" height="2" fill="#FCEAA5" />
<rect x="10" y="22" width="2" height="2" fill="#EBAA70" />
<rect x="12" y="22" width="2" height="2" fill="#6F3235" />
<rect x="14" y="22" width="2" height="2" fill="#242121" />
<rect x="16" y="22" width="2" height="2" fill="#FFFFFF" />
<rect x="2" y="24" width="2" height="2" fill="#FFFFFF" />
<rect x="4" y="24" width="2" height="2" fill="#FFFFFF" />
<rect x="6" y="24" width="2" height="2" fill="#242121" />
<rect x="8" y="24" width="2" height="2" fill="#212A39" />
<rect x="10" y="24" width="2" height="2" fill="#212A39" />
<rect x="12" y="24" width="2" height="2" fill="#190917" />
<rect x="14" y="24" width="2" height="2" fill="#242121" />
<rect x="16" y="24" width="2" height="2" fill="#FFFFFF" />
<rect x="18" y="24" width="2" height="2" fill="#FFFFFF" />
<rect x="2" y="26" width="2" height="2" fill="#FFFFFF" />
<rect x="4" y="26" width="2" height="2" fill="#242121" />
<rect x="6" y="26" width="2" height="2" fill="#85A1AA" />
<rect x="8" y="26" width="2" height="2" fill="#F2EDD9" />
<rect x="10" y="26" width="2" height="2" fill="#EBAA70" />
<rect x="12" y="26" width="2" height="2" fill="#190917" />
<rect x="14" y="26" width="2" height="2" fill="#6F3235" />
<rect x="16" y="26" width="2" height="2" fill="#242121" />
<rect x="18" y="26" width="2" height="2" fill="#FFFFFF" />
<rect x="0" y="28" width="2" height="2" fill="#FFFFFF" />
<rect x="2" y="28" width="2" height="2" fill="#FFFFFF" />
<rect x="4" y="28" width="2" height="2" fill="#242121" />
<rect x="6" y="28" width="2" height="2" fill="#85A1AA" />
<rect x="8" y="28" width="2" height="2" fill="#FCEAA5" />
<rect x="10" y="28" width="2" height="2" fill="#5C6F69" />
<rect x="12" y="28" width="2" height="2" fill="#190917" />
<rect x="14" y="28" width="2" height="2" fill="#6F3235" />
<rect x="16" y="28" width="2" height="2" fill="#242121" />
<rect x="18" y="28" width="2" height="2" fill="#FFFFFF" />
<rect x="20" y="28" width="2" height="2" fill="#FFFFFF" />
<rect x="0" y="30" width="2" height="2" fill="#FFFFFF" />
<rect x="2" y="30" width="2" height="2" fill="#242121" />
<rect x="4" y="30" width="2" height="2" fill="#5C6F69" />
<rect x="6" y="30" width="2" height="2" fill="#8DADA9" />
<rect x="8" y="30" width="2" height="2" fill="#8DADA9" />
<rect x="10" y="30" width="2" height="2" fill="#5C6F69" />
<rect x="12" y="30" width="2" height="2" fill="#28364E" />
<rect x="14" y="30" width="2" height="2" fill="#190917" />
<rect x="16" y="30" width="2" height="2" fill="#6F3235" />
<rect x="18" y="30" width="2" height="2" fill="#242121" />
<rect x="20" y="30" width="2" height="2" fill="#FFFFFF" />
<rect x="0" y="32" width="2" height="2" fill="#FFFFFF" />
<rect x="2" y="32" width="2" height="2" fill="#242121" />
<rect x="4" y="32" width="2" height="2" fill="#42586B" />
<rect x="6" y="32" width="2" height="2" fill="#8DADA9" />
<rect x="8" y="32" width="2" height="2" fill="#8DADA9" />
<rect x="10" y="32" width="2" height="2" fill="#5C6F69" />
<rect x="12" y="32" width="2" height="2" fill="#28364E" />
<rect x="14" y="32" width="2" height="2" fill="#190917" />
<rect x="16" y="32" width="2" height="2" fill="#763C39" />
<rect x="18" y="32" width="2" height="2" fill="#242121" />
<rect x="20" y="32" width="2" height="2" fill="#FFFFFF" />
<rect x="0" y="34" width="2" height="2" fill="#FFFFFF" />
<rect x="2" y="34" width="2" height="2" fill="#242121" />
<rect x="4" y="34" width="2" height="2" fill="#42586B" />
<rect x="6" y="34" width="2" height="2" fill="#8DADA9" />
<rect x="8" y="34" width="2" height="2" fill="#8DADA9" />
<rect x="10" y="34" width="2" height="2" fill="#5C6F69" />
<rect x="12" y="34" width="2" height="2" fill="#28364E" />
<rect x="14" y="34" width="2" height="2" fill="#190917" />
<rect x="16" y="34" width="2" height="2" fill="#B86E4C" />
<rect x="18" y="34" width="2" height="2" fill="#242121" />
<rect x="20" y="34" width="2" height="2" fill="#FFFFFF" />
<rect x="0" y="36" width="2" height="2" fill="#FFFFFF" />
<rect x="2" y="36" width="2" height="2" fill="#242121" />
<rect x="4" y="36" width="2" height="2" fill="#42586B" />
<rect x="6" y="36" width="2" height="2" fill="#8DADA9" />
<rect x="8" y="36" width="2" height="2" fill="#8DADA9" />
<rect x="10" y="36" width="2" height="2" fill="#5C6F69" />
<rect x="12" y="36" width="2" height="2" fill="#28364E" />
<rect x="14" y="36" width="2" height="2" fill="#190917" />
<rect x="16" y="36" width="2" height="2" fill="#F7CB74" />
<rect x="18" y="36" width="2" height="2" fill="#242121" />
<rect x="20" y="36" width="2" height="2" fill="#FFFFFF" />
<rect x="0" y="38" width="2" height="2" fill="#FFFFFF" />
<rect x="2" y="38" width="2" height="2" fill="#242121" />
<rect x="4" y="38" width="2" height="2" fill="#42586B" />
<rect x="6" y="38" width="2" height="2" fill="#8DADA9" />
<rect x="8" y="38" width="2" height="2" fill="#8DADA9" />
<rect x="10" y="38" width="2" height="2" fill="#5C6F69" />
<rect x="12" y="38" width="2" height="2" fill="#28364E" />
<rect x="14" y="38" width="2" height="2" fill="#282727" />
<rect x="16" y="38" width="2" height="2" fill="#FCEAA5" />
<rect x="18" y="38" width="2" height="2" fill="#242121" />
<rect x="20" y="38" width="2" height="2" fill="#FFFFFF" />
<rect x="0" y="40" width="2" height="2" fill="#FFFFFF" />
<rect x="2" y="40" width="2" height="2" fill="#242121" />
<rect x="4" y="40" width="2" height="2" fill="#42586B" />
<rect x="6" y="40" width="2" height="2" fill="#8DADA9" />
<rect x="8" y="40" width="2" height="2" fill="#8DADA9" />
<rect x="10" y="40" width="2" height="2" fill="#5C6F69" />
<rect x="12" y="40" width="2" height="2" fill="#28364E" />
<rect x="14" y="40" width="2" height="2" fill="#433738" />
<rect x="16" y="40" width="2" height="2" fill="#FCEAA5" />
<rect x="18" y="40" width="2" height="2" fill="#242121" />
<rect x="20" y="40" width="2" height="2" fill="#FFFFFF" />
<rect x="0" y="42" width="2" height="2" fill="#FFFFFF" />
<rect x="2" y="42" width="2" height="2" fill="#242121" />
<rect x="4" y="42" width="2" height="2" fill="#42586B" />
<rect x="6" y="42" width="2" height="2" fill="#8DADA9" />
<rect x="8" y="42" width="2" height="2" fill="#8DADA9" />
<rect x="10" y="42" width="2" height="2" fill="#5C6F69" />
<rect x="12" y="42" width="2" height="2" fill="#28364E" />
<rect x="14" y="42" width="2" height="2" fill="#704648" />
<rect x="16" y="42" width="2" height="2" fill="#FCEAA5" />
<rect x="18" y="42" width="2" height="2" fill="#242121" />
<rect x="20" y="42" width="2" height="2" fill="#FFFFFF" />
<rect x="0" y="44" width="2" height="2" fill="#FFFFFF" />
<rect x="2" y="44" width="2" height="2" fill="#242121" />
<rect x="4" y="44" width="2" height="2" fill="#42586B" />
<rect x="6" y="44" width="2" height="2" fill="#8DADA9" />
<rect x="8" y="44" width="2" height="2" fill="#8DADA9" />
<rect x="10" y="44" width="2" height="2" fill="#5C6F69" />
<rect x="12" y="44" width="2" height="2" fill="#28364E" />
<rect x="14" y="44" width="2" height="2" fill="#6F3235" />
<rect x="16" y="44" width="2" height="2" fill="#FCEAA5" />
<rect x="18" y="44" width="2" height="2" fill="#242121" />
<rect x="20" y="44" width="2" height="2" fill="#FFFFFF" />
<rect x="0" y="46" width="2" height="2" fill="#FFFFFF" />
<rect x="2" y="46" width="2" height="2" fill="#242121" />
<rect x="4" y="46" width="2" height="2" fill="#42586B" />
<rect x="6" y="46" width="2" height="2" fill="#8DADA9" />
<rect x="8" y="46" width="2" height="2" fill="#8DADA9" />
<rect x="10" y="46" width="2" height="2" fill="#42586B" />
<rect x="12" y="46" width="2" height="2" fill="#28364E" />
<rect x="14" y="46" width="2" height="2" fill="#6F3235" />
<rect x="16" y="46" width="2" height="2" fill="#FCEAA5" />
<rect x="18" y="46" width="2" height="2" fill="#242121" />
<rect x="20" y="46" width="2" height="2" fill="#FFFFFF" />
<rect x="0" y="48" width="2" height="2" fill="#FFFFFF" />
<rect x="2" y="48" width="2" height="2" fill="#242121" />
<rect x="4" y="48" width="2" height="2" fill="#42586B" />
<rect x="6" y="48" width="2" height="2" fill="#8DADA9" />
<rect x="8" y="48" width="2" height="2" fill="#8DADA9" />
<rect x="10" y="48" width="2" height="2" fill="#42586B" />
<rect x="12" y="48" width="2" height="2" fill="#28364E" />
<rect x="14" y="48" width="2" height="2" fill="#6F3235" />
<rect x="16" y="48" width="2" height="2" fill="#F4BF7B" />
<rect x="18" y="48" width="2" height="2" fill="#242121" />
<rect x="20" y="48" width="2" height="2" fill="#FFFFFF" />
<rect x="0" y="50" width="2" height="2" fill="#FFFFFF" />
<rect x="2" y="50" width="2" height="2" fill="#242121" />
<rect x="4" y="50" width="2" height="2" fill="#42586B" />
<rect x="6" y="50" width="2" height="2" fill="#8DADA9" />
<rect x="8" y="50" width="2" height="2" fill="#8DADA9" />
<rect x="10" y="50" width="2" height="2" fill="#42586B" />
<rect x="12" y="50" width="2" height="2" fill="#28364E" />
<rect x="14" y="50" width="2" height="2" fill="#6F3235" />
<rect x="16" y="50" width="2" height="2" fill="#F4BF7B" />
<rect x="18" y="50" width="2" height="2" fill="#242121" />
<rect x="20" y="50" width="2" height="2" fill="#FFFFFF" />
<rect x="0" y="52" width="2" height="2" fill="#FFFFFF" />
<rect x="2" y="52" width="2" height="2" fill="#242121" />
<rect x="4" y="52" width="2" height="2" fill="#42586B" />
<rect x="6" y="52" width="2" height="2" fill="#8DADA9" />
<rect x="8" y="52" width="2" height="2" fill="#8DADA9" />
<rect x="10" y="52" width="2" height="2" fill="#42586B" />
<rect x="12" y="52" width="2" height="2" fill="#28364E" />
<rect x="14" y="52" width="2" height="2" fill="#6F3235" />
<rect x="16" y="52" width="2" height="2" fill="#F4BF7B" />
<rect x="18" y="52" width="2" height="2" fill="#242121" />
<rect x="20" y="52" width="2" height="2" fill="#FFFFFF" />
<rect x="0" y="54" width="2" height="2" fill="#FFFFFF" />
<rect x="2" y="54" width="2" height="2" fill="#242121" />
<rect x="4" y="54" width="2" height="2" fill="#42586B" />
<rect x="6" y="54" width="2" height="2" fill="#ECAE6E" />
<rect x="8" y="54" width="2" height="2" fill="#D68B53" />
<rect x="10" y="54" width="2" height="2" fill="#C58F67" />
<rect x="12" y="54" width="2" height="2" fill="#6F3235" />
<rect x="14" y="54" width="2" height="2" fill="#6F3235" />
<rect x="16" y="54" width="2" height="2" fill="#D68B53" />
<rect x="18" y="54" width="2" height="2" fill="#242121" />
<rect x="20" y="54" width="2" height="2" fill="#FFFFFF" />
<rect x="0" y="56" width="2" height="2" fill="#FFFFFF" />
<rect x="2" y="56" width="2" height="2" fill="#242121" />
<rect x="4" y="56" width="2" height="2" fill="#42586B" />
<rect x="6" y="56" width="2" height="2" fill="#242121" />
<rect x="8" y="56" width="2" height="2" fill="#242121" />
<rect x="10" y="56" width="2" height="2" fill="#242121" />
<rect x="12" y="56" width="2" height="2" fill="#242121" />
<rect x="14" y="56" width="2" height="2" fill="#242121" />
<rect x="16" y="56" width="2" height="2" fill="#B05B3D" />
<rect x="18" y="56" width="2" height="2" fill="#242121" />
<rect x="20" y="56" width="2" height="2" fill="#FFFFFF" />
<rect x="0" y="58" width="2" height="2" fill="#FFFFFF" />
<rect x="2" y="58" width="2" height="2" fill="#FFFFFF" />
<rect x="4" y="58" width="2" height="2" fill="#242121" />
<rect x="6" y="58" width="2" height="2" fill="#42586B" />
<rect x="8" y="58" width="2" height="2" fill="#5C6F69" />
<rect x="10" y="58" width="2" height="2" fill="#42586B" />
<rect x="12" y="58" width="2" height="2" fill="#6F3235" />
<rect x="14" y="58" width="2" height="2" fill="#B05B3D" />
<rect x="16" y="58" width="2" height="2" fill="#242121" />
<rect x="18" y="58" width="2" height="2" fill="#FFFFFF" />
<rect x="20" y="58" width="2" height="2" fill="#FFFFFF" />
<rect x="2" y="60" width="2" height="2" fill="#FFFFFF" />
<rect x="4" y="60" width="2" height="2" fill="#FFFFFF" />
<rect x="6" y="60" width="2" height="2" fill="#242121" />
<rect x="8" y="60" width="2" height="2" fill="#242121" />
<rect x="10" y="60" width="2" height="2" fill="#242121" />
<rect x="12" y="60" width="2" height="2" fill="#242121" />
<rect x="14" y="60" width="2" height="2" fill="#242121" />
<rect x="16" y="60" width="2" height="2" fill="#FFFFFF" />
<rect x="18" y="60" width="2" height="2" fill="#FFFFFF" />
<rect x="4" y="62" width="2" height="2" fill="#FFFFFF" />
<rect x="6" y="62" width="2" height="2" fill="#FFFFFF" />
<rect x="8" y="62" width="2" height="2" fill="#FFFFFF" />
<rect x="10" y="62" width="2" height="2" fill="#FFFFFF" />
<rect x="12" y="62" width="2" height="2" fill="#FFFFFF" />
<rect x="14" y="62" width="2" height="2" fill="#FFFFFF" />
<rect x="16" y="62" width="2" height="2" fill="#FFFFFF" />
</svg>