<?xml version="1.0" encoding="UTF-8" ?>
<svg version="1.1" width="160" height="95" xmlns="http://www.w3.org/2000/svg" shape-rendering="crispEdges">
<rect x="16" y="6" width="1" height="1" fill="#FFFFFF" />
<rect x="16" y="7" width="1" height="1" fill="#FFFFFF" />
<rect x="17" y="7" width="1" height="1" fill="#FFFFFF" />
<rect x="18" y="7" width="1" height="1" fill="#FFFFFF" />
<rect x="15" y="8" width="1" height="1" fill="#FFFFFF" />
<rect x="16" y="8" width="1" height="1" fill="#FFFFFF" />
<rect x="17" y="8" width="1" height="1" fill="#FFFFFF" />
<rect x="18" y="8" width="1" height="1" fill="#FFFFFF" />
<rect x="19" y="8" width="1" height="1" fill="#FFFFFF" />
<rect x="15" y="9" width="1" height="1" fill="#FFFFFF" />
<rect x="16" y="9" width="1" height="1" fill="#546E7A" />
<rect x="17" y="9" width="1" height="1" fill="#546E7A" />
<rect x="18" y="9" width="1" height="1" fill="#546E7A" />
<rect x="19" y="9" width="1" height="1" fill="#FFFFFF" />
<rect x="20" y="9" width="1" height="1" fill="#FFFFFF" />
<rect x="15" y="10" width="1" height="1" fill="#FFFFFF" />
<rect x="16" y="10" width="1" height="1" fill="#546E7A" />
<rect x="17" y="10" width="1" height="1" fill="#546E7A" />
<rect x="18" y="10" width="1" height="1" fill="#546E7A" />
<rect x="19" y="10" width="1" height="1" fill="#546E7A" />
<rect x="20" y="10" width="1" height="1" fill="#FFFFFF" />
<rect x="90" y="10" width="1" height="1" fill="#FFFFFF" />
<rect x="15" y="11" width="1" height="1" fill="#FFFFFF" />
<rect x="16" y="11" width="1" height="1" fill="#546E7A" />
<rect x="17" y="11" width="1" height="1" fill="#546E7A" />
<rect x="18" y="11" width="1" height="1" fill="#546E7A" />
<rect x="19" y="11" width="1" height="1" fill="#546E7A" />
<rect x="20" y="11" width="1" height="1" fill="#FFFFFF" />
<rect x="21" y="11" width="1" height="1" fill="#FFFFFF" />
<rect x="89" y="11" width="1" height="1" fill="#FFFFFF" />
<rect x="90" y="11" width="1" height="1" fill="#FFFFFF" />
<rect x="91" y="11" width="1" height="1" fill="#FFFFFF" />
<rect x="92" y="11" width="1" height="1" fill="#FFFFFF" />
<rect x="15" y="12" width="1" height="1" fill="#FFFFFF" />
<rect x="16" y="12" width="1" height="1" fill="#546E7A" />
<rect x="17" y="12" width="1" height="1" fill="#546E7A" />
<rect x="18" y="12" width="1" height="1" fill="#546E7A" />
<rect x="19" y="12" width="1" height="1" fill="#546E7A" />
<rect x="20" y="12" width="1" height="1" fill="#546E7A" />
<rect x="21" y="12" width="1" height="1" fill="#FFFFFF" />
<rect x="89" y="12" width="1" height="1" fill="#FFFFFF" />
<rect x="90" y="12" width="1" height="1" fill="#FFFFFF" />
<rect x="91" y="12" width="1" height="1" fill="#FFFFFF" />
<rect x="92" y="12" width="1" height="1" fill="#FFFFFF" />
<rect x="16" y="13" width="1" height="1" fill="#FFFFFF" />
<rect x="17" y="13" width="1" height="1" fill="#546E7A" />
<rect x="18" y="13" width="1" height="1" fill="#546E7A" />
<rect x="19" y="13" width="1" height="1" fill="#663931" />
<rect x="20" y="13" width="1" height="1" fill="#546E7A" />
<rect x="21" y="13" width="1" height="1" fill="#FFFFFF" />
<rect x="90" y="13" width="1" height="1" fill="#FFFFFF" />
<rect x="91" y="13" width="1" height="1" fill="#FFFFFF" />
<rect x="92" y="13" width="1" height="1" fill="#FFFFFF" />
<rect x="17" y="14" width="1" height="1" fill="#FFFFFF" />
<rect x="18" y="14" width="1" height="1" fill="#546E7A" />
<rect x="19" y="14" width="1" height="1" fill="#663931" />
<rect x="20" y="14" width="1" height="1" fill="#663931" />
<rect x="21" y="14" width="1" height="1" fill="#FFFFFF" />
<rect x="85" y="14" width="1" height="1" fill="#FFFFFF" />
<rect x="90" y="14" width="1" height="1" fill="#FFFFFF" />
<rect x="91" y="14" width="1" height="1" fill="#FFFFFF" />
<rect x="92" y="14" width="1" height="1" fill="#FFFFFF" />
<rect x="93" y="14" width="1" height="1" fill="#FFFFFF" />
<rect x="18" y="15" width="1" height="1" fill="#FFFFFF" />
<rect x="19" y="15" width="1" height="1" fill="#663931" />
<rect x="20" y="15" width="1" height="1" fill="#663931" />
<rect x="21" y="15" width="1" height="1" fill="#FFFFFF" />
<rect x="85" y="15" width="1" height="1" fill="#FFFFFF" />
<rect x="86" y="15" width="1" height="1" fill="#FFFFFF" />
<rect x="90" y="15" width="1" height="1" fill="#FFFFFF" />
<rect x="92" y="15" width="1" height="1" fill="#FFFFFF" />
<rect x="93" y="15" width="1" height="1" fill="#FFFFFF" />
<rect x="19" y="16" width="1" height="1" fill="#FFFFFF" />
<rect x="20" y="16" width="1" height="1" fill="#663931" />
<rect x="21" y="16" width="1" height="1" fill="#FFFFFF" />
<rect x="22" y="16" width="1" height="1" fill="#FFFFFF" />
<rect x="86" y="16" width="1" height="1" fill="#FFFFFF" />
<rect x="89" y="16" width="1" height="1" fill="#FFFFFF" />
<rect x="91" y="16" width="1" height="1" fill="#FFFFFF" />
<rect x="92" y="16" width="1" height="1" fill="#FFFFFF" />
<rect x="93" y="16" width="1" height="1" fill="#FFFFFF" />
<rect x="19" y="17" width="1" height="1" fill="#FFFFFF" />
<rect x="20" y="17" width="1" height="1" fill="#663931" />
<rect x="21" y="17" width="1" height="1" fill="#663931" />
<rect x="22" y="17" width="1" height="1" fill="#FFFFFF" />
<rect x="86" y="17" width="1" height="1" fill="#FFFFFF" />
<rect x="89" y="17" width="1" height="1" fill="#FFFFFF" />
<rect x="90" y="17" width="1" height="1" fill="#FFFFFF" />
<rect x="91" y="17" width="1" height="1" fill="#FFFFFF" />
<rect x="92" y="17" width="1" height="1" fill="#FFFFFF" />
<rect x="93" y="17" width="1" height="1" fill="#FFFFFF" />
<rect x="94" y="17" width="1" height="1" fill="#FFFFFF" />
<rect x="19" y="18" width="1" height="1" fill="#FFFFFF" />
<rect x="20" y="18" width="1" height="1" fill="#FFFFFF" />
<rect x="21" y="18" width="1" height="1" fill="#663931" />
<rect x="22" y="18" width="1" height="1" fill="#FFFFFF" />
<rect x="23" y="18" width="1" height="1" fill="#FFFFFF" />
<rect x="85" y="18" width="1" height="1" fill="#FFFFFF" />
<rect x="86" y="18" width="1" height="1" fill="#FFFFFF" />
<rect x="89" y="18" width="1" height="1" fill="#FFFFFF" />
<rect x="90" y="18" width="1" height="1" fill="#FFFFFF" />
<rect x="91" y="18" width="1" height="1" fill="#FFFFFF" />
<rect x="92" y="18" width="1" height="1" fill="#FFFFFF" />
<rect x="93" y="18" width="1" height="1" fill="#FFFFFF" />
<rect x="94" y="18" width="1" height="1" fill="#FFFFFF" />
<rect x="20" y="19" width="1" height="1" fill="#FFFFFF" />
<rect x="21" y="19" width="1" height="1" fill="#663931" />
<rect x="22" y="19" width="1" height="1" fill="#663931" />
<rect x="23" y="19" width="1" height="1" fill="#FFFFFF" />
<rect x="85" y="19" width="1" height="1" fill="#FFFFFF" />
<rect x="86" y="19" width="1" height="1" fill="#FFFFFF" />
<rect x="89" y="19" width="1" height="1" fill="#FFFFFF" />
<rect x="90" y="19" width="1" height="1" fill="#FFFFFF" />
<rect x="91" y="19" width="1" height="1" fill="#FFFFFF" />
<rect x="92" y="19" width="1" height="1" fill="#FFFFFF" />
<rect x="93" y="19" width="1" height="1" fill="#FFFFFF" />
<rect x="94" y="19" width="1" height="1" fill="#FFFFFF" />
<rect x="20" y="20" width="1" height="1" fill="#FFFFFF" />
<rect x="21" y="20" width="1" height="1" fill="#663931" />
<rect x="22" y="20" width="1" height="1" fill="#663931" />
<rect x="23" y="20" width="1" height="1" fill="#FFFFFF" />
<rect x="24" y="20" width="1" height="1" fill="#FFFFFF" />
<rect x="85" y="20" width="1" height="1" fill="#FFFFFF" />
<rect x="86" y="20" width="1" height="1" fill="#FFFFFF" />
<rect x="88" y="20" width="1" height="1" fill="#FFFFFF" />
<rect x="89" y="20" width="1" height="1" fill="#FFFFFF" />
<rect x="90" y="20" width="1" height="1" fill="#FFFFFF" />
<rect x="91" y="20" width="1" height="1" fill="#FFFFFF" />
<rect x="92" y="20" width="1" height="1" fill="#FFFFFF" />
<rect x="93" y="20" width="1" height="1" fill="#FFFFFF" />
<rect x="94" y="20" width="1" height="1" fill="#FFFFFF" />
<rect x="21" y="21" width="1" height="1" fill="#FFFFFF" />
<rect x="22" y="21" width="1" height="1" fill="#663931" />
<rect x="23" y="21" width="1" height="1" fill="#663931" />
<rect x="24" y="21" width="1" height="1" fill="#FFFFFF" />
<rect x="85" y="21" width="1" height="1" fill="#FFFFFF" />
<rect x="86" y="21" width="1" height="1" fill="#FFFFFF" />
<rect x="88" y="21" width="1" height="1" fill="#FFFFFF" />
<rect x="89" y="21" width="1" height="1" fill="#FFFFFF" />
<rect x="90" y="21" width="1" height="1" fill="#FFFFFF" />
<rect x="91" y="21" width="1" height="1" fill="#FFFFFF" />
<rect x="92" y="21" width="1" height="1" fill="#FFFFFF" />
<rect x="93" y="21" width="1" height="1" fill="#FFFFFF" />
<rect x="94" y="21" width="1" height="1" fill="#FFFFFF" />
<rect x="21" y="22" width="1" height="1" fill="#FFFFFF" />
<rect x="22" y="22" width="1" height="1" fill="#663931" />
<rect x="23" y="22" width="1" height="1" fill="#663931" />
<rect x="24" y="22" width="1" height="1" fill="#FFFFFF" />
<rect x="83" y="22" width="1" height="1" fill="#FFFFFF" />
<rect x="84" y="22" width="1" height="1" fill="#FFFFFF" />
<rect x="85" y="22" width="1" height="1" fill="#FFFFFF" />
<rect x="86" y="22" width="1" height="1" fill="#FFFFFF" />
<rect x="87" y="22" width="1" height="1" fill="#FFFFFF" />
<rect x="88" y="22" width="1" height="1" fill="#FFFFFF" />
<rect x="89" y="22" width="1" height="1" fill="#FFFFFF" />
<rect x="90" y="22" width="1" height="1" fill="#FFFFFF" />
<rect x="91" y="22" width="1" height="1" fill="#FFFFFF" />
<rect x="92" y="22" width="1" height="1" fill="#546E7A" />
<rect x="93" y="22" width="1" height="1" fill="#FFFFFF" />
<rect x="94" y="22" width="1" height="1" fill="#FFFFFF" />
<rect x="21" y="23" width="1" height="1" fill="#FFFFFF" />
<rect x="22" y="23" width="1" height="1" fill="#FFFFFF" />
<rect x="23" y="23" width="1" height="1" fill="#663931" />
<rect x="24" y="23" width="1" height="1" fill="#FFFFFF" />
<rect x="25" y="23" width="1" height="1" fill="#FFFFFF" />
<rect x="80" y="23" width="1" height="1" fill="#FFFFFF" />
<rect x="81" y="23" width="1" height="1" fill="#FFFFFF" />
<rect x="82" y="23" width="1" height="1" fill="#FFFFFF" />
<rect x="83" y="23" width="1" height="1" fill="#FFFFFF" />
<rect x="84" y="23" width="1" height="1" fill="#FFFFFF" />
<rect x="85" y="23" width="1" height="1" fill="#FFFFFF" />
<rect x="86" y="23" width="1" height="1" fill="#FFFFFF" />
<rect x="87" y="23" width="1" height="1" fill="#FFFFFF" />
<rect x="88" y="23" width="1" height="1" fill="#FFFFFF" />
<rect x="89" y="23" width="1" height="1" fill="#FFFFFF" />
<rect x="90" y="23" width="1" height="1" fill="#FFFFFF" />
<rect x="91" y="23" width="1" height="1" fill="#546E7A" />
<rect x="92" y="23" width="1" height="1" fill="#546E7A" />
<rect x="93" y="23" width="1" height="1" fill="#FFFFFF" />
<rect x="94" y="23" width="1" height="1" fill="#FFFFFF" />
<rect x="22" y="24" width="1" height="1" fill="#FFFFFF" />
<rect x="23" y="24" width="1" height="1" fill="#FFFFFF" />
<rect x="24" y="24" width="1" height="1" fill="#FFFFFF" />
<rect x="25" y="24" width="1" height="1" fill="#FFFFFF" />
<rect x="79" y="24" width="1" height="1" fill="#FFFFFF" />
<rect x="80" y="24" width="1" height="1" fill="#FFFFFF" />
<rect x="81" y="24" width="1" height="1" fill="#FFFFFF" />
<rect x="82" y="24" width="1" height="1" fill="#FFFFFF" />
<rect x="83" y="24" width="1" height="1" fill="#FFFFFF" />
<rect x="84" y="24" width="1" height="1" fill="#FFFFFF" />
<rect x="85" y="24" width="1" height="1" fill="#FFFFFF" />
<rect x="86" y="24" width="1" height="1" fill="#FFFFFF" />
<rect x="87" y="24" width="1" height="1" fill="#FFFFFF" />
<rect x="88" y="24" width="1" height="1" fill="#FFFFFF" />
<rect x="89" y="24" width="1" height="1" fill="#FFFFFF" />
<rect x="90" y="24" width="1" height="1" fill="#FFFFFF" />
<rect x="91" y="24" width="1" height="1" fill="#546E7A" />
<rect x="92" y="24" width="1" height="1" fill="#546E7A" />
<rect x="93" y="24" width="1" height="1" fill="#FFFFFF" />
<rect x="94" y="24" width="1" height="1" fill="#FFFFFF" />
<rect x="23" y="25" width="1" height="1" fill="#FFFFFF" />
<rect x="24" y="25" width="1" height="1" fill="#FFFFFF" />
<rect x="25" y="25" width="1" height="1" fill="#FFFFFF" />
<rect x="72" y="25" width="1" height="1" fill="#FFFFFF" />
<rect x="73" y="25" width="1" height="1" fill="#FFFFFF" />
<rect x="74" y="25" width="1" height="1" fill="#FFFFFF" />
<rect x="78" y="25" width="1" height="1" fill="#FFFFFF" />
<rect x="79" y="25" width="1" height="1" fill="#FFFFFF" />
<rect x="80" y="25" width="1" height="1" fill="#FFFFFF" />
<rect x="81" y="25" width="1" height="1" fill="#FFFFFF" />
<rect x="82" y="25" width="1" height="1" fill="#FFFFFF" />
<rect x="83" y="25" width="1" height="1" fill="#FFFFFF" />
<rect x="84" y="25" width="1" height="1" fill="#FFFFFF" />
<rect x="85" y="25" width="1" height="1" fill="#FFFFFF" />
<rect x="86" y="25" width="1" height="1" fill="#FFFFFF" />
<rect x="87" y="25" width="1" height="1" fill="#FFFFFF" />
<rect x="88" y="25" width="1" height="1" fill="#FFFFFF" />
<rect x="89" y="25" width="1" height="1" fill="#546E7A" />
<rect x="90" y="25" width="1" height="1" fill="#FFFFFF" />
<rect x="91" y="25" width="1" height="1" fill="#546E7A" />
<rect x="92" y="25" width="1" height="1" fill="#546E7A" />
<rect x="93" y="25" width="1" height="1" fill="#FFFFFF" />
<rect x="94" y="25" width="1" height="1" fill="#FFFFFF" />
<rect x="136" y="25" width="1" height="1" fill="#FFFFFF" />
<rect x="73" y="26" width="1" height="1" fill="#FFFFFF" />
<rect x="74" y="26" width="1" height="1" fill="#663931" />
<rect x="75" y="26" width="1" height="1" fill="#663931" />
<rect x="76" y="26" width="1" height="1" fill="#FFFFFF" />
<rect x="77" y="26" width="1" height="1" fill="#FFFFFF" />
<rect x="78" y="26" width="1" height="1" fill="#FFFFFF" />
<rect x="79" y="26" width="1" height="1" fill="#FFFFFF" />
<rect x="80" y="26" width="1" height="1" fill="#FFFFFF" />
<rect x="81" y="26" width="1" height="1" fill="#FFFFFF" />
<rect x="82" y="26" width="1" height="1" fill="#FFFFFF" />
<rect x="83" y="26" width="1" height="1" fill="#FFFFFF" />
<rect x="84" y="26" width="1" height="1" fill="#FFFFFF" />
<rect x="85" y="26" width="1" height="1" fill="#663931" />
<rect x="86" y="26" width="1" height="1" fill="#FFFFFF" />
<rect x="87" y="26" width="1" height="1" fill="#FFFFFF" />
<rect x="88" y="26" width="1" height="1" fill="#FFFFFF" />
<rect x="89" y="26" width="1" height="1" fill="#546E7A" />
<rect x="90" y="26" width="1" height="1" fill="#546E7A" />
<rect x="91" y="26" width="1" height="1" fill="#546E7A" />
<rect x="92" y="26" width="1" height="1" fill="#546E7A" />
<rect x="93" y="26" width="1" height="1" fill="#FFFFFF" />
<rect x="94" y="26" width="1" height="1" fill="#FFFFFF" />
<rect x="136" y="26" width="1" height="1" fill="#FFFFFF" />
<rect x="74" y="27" width="1" height="1" fill="#FFFFFF" />
<rect x="75" y="27" width="1" height="1" fill="#FFFFFF" />
<rect x="76" y="27" width="1" height="1" fill="#663931" />
<rect x="77" y="27" width="1" height="1" fill="#663931" />
<rect x="78" y="27" width="1" height="1" fill="#663931" />
<rect x="79" y="27" width="1" height="1" fill="#663931" />
<rect x="80" y="27" width="1" height="1" fill="#663931" />
<rect x="81" y="27" width="1" height="1" fill="#663931" />
<rect x="82" y="27" width="1" height="1" fill="#663931" />
<rect x="83" y="27" width="1" height="1" fill="#663931" />
<rect x="84" y="27" width="1" height="1" fill="#FFFFFF" />
<rect x="85" y="27" width="1" height="1" fill="#663931" />
<rect x="86" y="27" width="1" height="1" fill="#663931" />
<rect x="87" y="27" width="1" height="1" fill="#663931" />
<rect x="88" y="27" width="1" height="1" fill="#FFFFFF" />
<rect x="89" y="27" width="1" height="1" fill="#546E7A" />
<rect x="90" y="27" width="1" height="1" fill="#546E7A" />
<rect x="91" y="27" width="1" height="1" fill="#546E7A" />
<rect x="92" y="27" width="1" height="1" fill="#546E7A" />
<rect x="93" y="27" width="1" height="1" fill="#FFFFFF" />
<rect x="94" y="27" width="1" height="1" fill="#FFFFFF" />
<rect x="135" y="27" width="1" height="1" fill="#FFFFFF" />
<rect x="136" y="27" width="1" height="1" fill="#FFFFFF" />
<rect x="77" y="28" width="1" height="1" fill="#FFFFFF" />
<rect x="78" y="28" width="1" height="1" fill="#FFFFFF" />
<rect x="79" y="28" width="1" height="1" fill="#FFFFFF" />
<rect x="80" y="28" width="1" height="1" fill="#663931" />
<rect x="81" y="28" width="1" height="1" fill="#663931" />
<rect x="82" y="28" width="1" height="1" fill="#663931" />
<rect x="83" y="28" width="1" height="1" fill="#663931" />
<rect x="84" y="28" width="1" height="1" fill="#663931" />
<rect x="85" y="28" width="1" height="1" fill="#663931" />
<rect x="86" y="28" width="1" height="1" fill="#663931" />
<rect x="87" y="28" width="1" height="1" fill="#663931" />
<rect x="88" y="28" width="1" height="1" fill="#546E7A" />
<rect x="89" y="28" width="1" height="1" fill="#546E7A" />
<rect x="90" y="28" width="1" height="1" fill="#546E7A" />
<rect x="91" y="28" width="1" height="1" fill="#546E7A" />
<rect x="92" y="28" width="1" height="1" fill="#546E7A" />
<rect x="93" y="28" width="1" height="1" fill="#FFFFFF" />
<rect x="94" y="28" width="1" height="1" fill="#FFFFFF" />
<rect x="135" y="28" width="1" height="1" fill="#FFFFFF" />
<rect x="136" y="28" width="1" height="1" fill="#663931" />
<rect x="137" y="28" width="1" height="1" fill="#FFFFFF" />
<rect x="81" y="29" width="1" height="1" fill="#FFFFFF" />
<rect x="82" y="29" width="1" height="1" fill="#FFFFFF" />
<rect x="83" y="29" width="1" height="1" fill="#663931" />
<rect x="84" y="29" width="1" height="1" fill="#663931" />
<rect x="85" y="29" width="1" height="1" fill="#663931" />
<rect x="86" y="29" width="1" height="1" fill="#663931" />
<rect x="87" y="29" width="1" height="1" fill="#546E7A" />
<rect x="88" y="29" width="1" height="1" fill="#546E7A" />
<rect x="89" y="29" width="1" height="1" fill="#546E7A" />
<rect x="90" y="29" width="1" height="1" fill="#546E7A" />
<rect x="91" y="29" width="1" height="1" fill="#546E7A" />
<rect x="92" y="29" width="1" height="1" fill="#546E7A" />
<rect x="93" y="29" width="1" height="1" fill="#FFFFFF" />
<rect x="135" y="29" width="1" height="1" fill="#FFFFFF" />
<rect x="136" y="29" width="1" height="1" fill="#663931" />
<rect x="137" y="29" width="1" height="1" fill="#FFFFFF" />
<rect x="84" y="30" width="1" height="1" fill="#FFFFFF" />
<rect x="85" y="30" width="1" height="1" fill="#FFFFFF" />
<rect x="86" y="30" width="1" height="1" fill="#663931" />
<rect x="87" y="30" width="1" height="1" fill="#546E7A" />
<rect x="88" y="30" width="1" height="1" fill="#546E7A" />
<rect x="89" y="30" width="1" height="1" fill="#546E7A" />
<rect x="90" y="30" width="1" height="1" fill="#546E7A" />
<rect x="91" y="30" width="1" height="1" fill="#546E7A" />
<rect x="92" y="30" width="1" height="1" fill="#546E7A" />
<rect x="93" y="30" width="1" height="1" fill="#FFFFFF" />
<rect x="135" y="30" width="1" height="1" fill="#FFFFFF" />
<rect x="136" y="30" width="1" height="1" fill="#663931" />
<rect x="137" y="30" width="1" height="1" fill="#FFFFFF" />
<rect x="85" y="31" width="1" height="1" fill="#FFFFFF" />
<rect x="86" y="31" width="1" height="1" fill="#FFFFFF" />
<rect x="87" y="31" width="1" height="1" fill="#546E7A" />
<rect x="88" y="31" width="1" height="1" fill="#546E7A" />
<rect x="89" y="31" width="1" height="1" fill="#546E7A" />
<rect x="90" y="31" width="1" height="1" fill="#546E7A" />
<rect x="91" y="31" width="1" height="1" fill="#546E7A" />
<rect x="92" y="31" width="1" height="1" fill="#546E7A" />
<rect x="93" y="31" width="1" height="1" fill="#FFFFFF" />
<rect x="135" y="31" width="1" height="1" fill="#FFFFFF" />
<rect x="136" y="31" width="1" height="1" fill="#663931" />
<rect x="137" y="31" width="1" height="1" fill="#FFFFFF" />
<rect x="87" y="32" width="1" height="1" fill="#FFFFFF" />
<rect x="88" y="32" width="1" height="1" fill="#546E7A" />
<rect x="89" y="32" width="1" height="1" fill="#546E7A" />
<rect x="90" y="32" width="1" height="1" fill="#546E7A" />
<rect x="91" y="32" width="1" height="1" fill="#546E7A" />
<rect x="92" y="32" width="1" height="1" fill="#FFFFFF" />
<rect x="135" y="32" width="1" height="1" fill="#FFFFFF" />
<rect x="136" y="32" width="1" height="1" fill="#663931" />
<rect x="137" y="32" width="1" height="1" fill="#FFFFFF" />
<rect x="91" y="33" width="1" height="1" fill="#FFFFFF" />
<rect x="136" y="33" width="1" height="1" fill="#FFFFFF" />
<rect x="137" y="33" width="1" height="1" fill="#663931" />
<rect x="138" y="33" width="1" height="1" fill="#FFFFFF" />
<rect x="136" y="34" width="1" height="1" fill="#FFFFFF" />
<rect x="137" y="34" width="1" height="1" fill="#663931" />
<rect x="138" y="34" width="1" height="1" fill="#FFFFFF" />
<rect x="139" y="34" width="1" height="1" fill="#FFFFFF" />
<rect x="136" y="35" width="1" height="1" fill="#FFFFFF" />
<rect x="137" y="35" width="1" height="1" fill="#663931" />
<rect x="138" y="35" width="1" height="1" fill="#663931" />
<rect x="139" y="35" width="1" height="1" fill="#FFFFFF" />
<rect x="140" y="35" width="1" height="1" fill="#FFFFFF" />
<rect x="137" y="36" width="1" height="1" fill="#FFFFFF" />
<rect x="138" y="36" width="1" height="1" fill="#663931" />
<rect x="139" y="36" width="1" height="1" fill="#663931" />
<rect x="140" y="36" width="1" height="1" fill="#FFFFFF" />
<rect x="144" y="36" width="1" height="1" fill="#FFFFFF" />
<rect x="137" y="37" width="1" height="1" fill="#FFFFFF" />
<rect x="138" y="37" width="1" height="1" fill="#663931" />
<rect x="139" y="37" width="1" height="1" fill="#663931" />
<rect x="140" y="37" width="1" height="1" fill="#FFFFFF" />
<rect x="141" y="37" width="1" height="1" fill="#FFFFFF" />
<rect x="144" y="37" width="1" height="1" fill="#FFFFFF" />
<rect x="137" y="38" width="1" height="1" fill="#FFFFFF" />
<rect x="138" y="38" width="1" height="1" fill="#663931" />
<rect x="139" y="38" width="1" height="1" fill="#663931" />
<rect x="140" y="38" width="1" height="1" fill="#663931" />
<rect x="141" y="38" width="1" height="1" fill="#FFFFFF" />
<rect x="143" y="38" width="1" height="1" fill="#FFFFFF" />
<rect x="144" y="38" width="1" height="1" fill="#FFFFFF" />
<rect x="145" y="38" width="1" height="1" fill="#FFFFFF" />
<rect x="137" y="39" width="1" height="1" fill="#FFFFFF" />
<rect x="138" y="39" width="1" height="1" fill="#546E7A" />
<rect x="139" y="39" width="1" height="1" fill="#546E7A" />
<rect x="140" y="39" width="1" height="1" fill="#663931" />
<rect x="141" y="39" width="1" height="1" fill="#FFFFFF" />
<rect x="142" y="39" width="1" height="1" fill="#FFFFFF" />
<rect x="143" y="39" width="1" height="1" fill="#FFFFFF" />
<rect x="144" y="39" width="1" height="1" fill="#FFFFFF" />
<rect x="145" y="39" width="1" height="1" fill="#FFFFFF" />
<rect x="136" y="40" width="1" height="1" fill="#FFFFFF" />
<rect x="137" y="40" width="1" height="1" fill="#546E7A" />
<rect x="138" y="40" width="1" height="1" fill="#546E7A" />
<rect x="139" y="40" width="1" height="1" fill="#546E7A" />
<rect x="140" y="40" width="1" height="1" fill="#546E7A" />
<rect x="141" y="40" width="1" height="1" fill="#546E7A" />
<rect x="142" y="40" width="1" height="1" fill="#FFFFFF" />
<rect x="143" y="40" width="1" height="1" fill="#546E7A" />
<rect x="144" y="40" width="1" height="1" fill="#FFFFFF" />
<rect x="145" y="40" width="1" height="1" fill="#FFFFFF" />
<rect x="136" y="41" width="1" height="1" fill="#FFFFFF" />
<rect x="137" y="41" width="1" height="1" fill="#546E7A" />
<rect x="138" y="41" width="1" height="1" fill="#546E7A" />
<rect x="139" y="41" width="1" height="1" fill="#546E7A" />
<rect x="140" y="41" width="1" height="1" fill="#546E7A" />
<rect x="141" y="41" width="1" height="1" fill="#546E7A" />
<rect x="142" y="41" width="1" height="1" fill="#546E7A" />
<rect x="143" y="41" width="1" height="1" fill="#546E7A" />
<rect x="144" y="41" width="1" height="1" fill="#FFFFFF" />
<rect x="136" y="42" width="1" height="1" fill="#FFFFFF" />
<rect x="137" y="42" width="1" height="1" fill="#546E7A" />
<rect x="138" y="42" width="1" height="1" fill="#546E7A" />
<rect x="139" y="42" width="1" height="1" fill="#546E7A" />
<rect x="140" y="42" width="1" height="1" fill="#546E7A" />
<rect x="141" y="42" width="1" height="1" fill="#546E7A" />
<rect x="142" y="42" width="1" height="1" fill="#546E7A" />
<rect x="143" y="42" width="1" height="1" fill="#FFFFFF" />
<rect x="136" y="43" width="1" height="1" fill="#FFFFFF" />
<rect x="137" y="43" width="1" height="1" fill="#546E7A" />
<rect x="138" y="43" width="1" height="1" fill="#546E7A" />
<rect x="139" y="43" width="1" height="1" fill="#546E7A" />
<rect x="140" y="43" width="1" height="1" fill="#546E7A" />
<rect x="141" y="43" width="1" height="1" fill="#546E7A" />
<rect x="142" y="43" width="1" height="1" fill="#FFFFFF" />
<rect x="136" y="44" width="1" height="1" fill="#FFFFFF" />
<rect x="137" y="44" width="1" height="1" fill="#546E7A" />
<rect x="138" y="44" width="1" height="1" fill="#546E7A" />
<rect x="139" y="44" width="1" height="1" fill="#FFFFFF" />
<rect x="140" y="44" width="1" height="1" fill="#FFFFFF" />
<rect x="24" y="75" width="1" height="1" fill="#FFFFFF" />
<rect x="23" y="76" width="1" height="1" fill="#FFFFFF" />
<rect x="24" y="76" width="1" height="1" fill="#663931" />
<rect x="23" y="77" width="1" height="1" fill="#FFFFFF" />
<rect x="24" y="77" width="1" height="1" fill="#663931" />
<rect x="25" y="77" width="1" height="1" fill="#FFFFFF" />
<rect x="23" y="78" width="1" height="1" fill="#FFFFFF" />
<rect x="24" y="78" width="1" height="1" fill="#663931" />
<rect x="25" y="78" width="1" height="1" fill="#FFFFFF" />
<rect x="23" y="79" width="1" height="1" fill="#FFFFFF" />
<rect x="24" y="79" width="1" height="1" fill="#663931" />
<rect x="25" y="79" width="1" height="1" fill="#FFFFFF" />
<rect x="23" y="80" width="1" height="1" fill="#FFFFFF" />
<rect x="24" y="80" width="1" height="1" fill="#663931" />
<rect x="25" y="80" width="1" height="1" fill="#FFFFFF" />
<rect x="26" y="80" width="1" height="1" fill="#FFFFFF" />
<rect x="23" y="81" width="1" height="1" fill="#FFFFFF" />
<rect x="24" y="81" width="1" height="1" fill="#663931" />
<rect x="25" y="81" width="1" height="1" fill="#FFFFFF" />
<rect x="26" y="81" width="1" height="1" fill="#FFFFFF" />
<rect x="27" y="81" width="1" height="1" fill="#FFFFFF" />
<rect x="30" y="81" width="1" height="1" fill="#FFFFFF" />
<rect x="23" y="82" width="1" height="1" fill="#FFFFFF" />
<rect x="24" y="82" width="1" height="1" fill="#546E7A" />
<rect x="25" y="82" width="1" height="1" fill="#546E7A" />
<rect x="26" y="82" width="1" height="1" fill="#FFFFFF" />
<rect x="27" y="82" width="1" height="1" fill="#FFFFFF" />
<rect x="28" y="82" width="1" height="1" fill="#FFFFFF" />
<rect x="29" y="82" width="1" height="1" fill="#FFFFFF" />
<rect x="30" y="82" width="1" height="1" fill="#FFFFFF" />
<rect x="23" y="83" width="1" height="1" fill="#FFFFFF" />
<rect x="24" y="83" width="1" height="1" fill="#546E7A" />
<rect x="25" y="83" width="1" height="1" fill="#546E7A" />
<rect x="26" y="83" width="1" height="1" fill="#546E7A" />
<rect x="27" y="83" width="1" height="1" fill="#FFFFFF" />
<rect x="29" y="83" width="1" height="1" fill="#FFFFFF" />
<rect x="24" y="84" width="1" height="1" fill="#FFFFFF" />
<rect x="25" y="84" width="1" height="1" fill="#546E7A" />
<rect x="26" y="84" width="1" height="1" fill="#546E7A" />
<rect x="27" y="84" width="1" height="1" fill="#FFFFFF" />
<rect x="25" y="85" width="1" height="1" fill="#FFFFFF" />
<rect x="26" y="85" width="1" height="1" fill="#FFFFFF" />
</svg>